<svg width="96" height="96" viewBox="0 0 96 96" fill="none" xmlns="http://www.w3.org/2000/svg">
  <path
    d="M38 78V72H18C15.8 72 13.8 71.12 12.36 69.64C10.88 68.2 10 66.2 10 64C10 59.88 13.2 56.44 17.24 56.04C17.48 56 17.72 56 18 56H78C78.28 56 78.52 56 78.76 56.04C80.68 56.2 82.36 57.04 83.64 58.36C85.28 59.96 86.16 62.24 85.96 64.72C85.6 68.92 81.8 72 77.56 72H58V78C58 83.52 53.52 88 48 88C42.48 88 38 83.52 38 78Z"
    fill="white" />
  <path
    d="M68.7623 8H53.0023C51.8823 8 51.0023 8.88 51.0023 10V16C51.0023 17.64 49.6423 19 48.0023 19C47.6423 19 47.3223 18.92 47.0023 18.8C45.8423 18.4 45.0023 17.28 45.0023 16V10C45.0023 8.88 44.1223 8 43.0023 8H36.9623C35.8423 8 34.9623 8.88 34.9623 10V28C34.9623 29.64 33.6023 31 31.9623 31C30.3223 31 28.9623 29.64 28.9623 28V19V10C28.9623 8.92 28.1623 8.08 27.0823 8H26.9623C20.0023 8.16 14.6023 14.2 15.3223 21.2L16.8023 48.2C16.9223 50.32 18.6823 52 20.8023 52H75.2023C77.3223 52 79.0823 50.32 79.2023 48.2L80.6823 21.2C81.4023 14.12 75.8423 8 68.7623 8Z"
    fill="white" />
</svg>