<svg width="96" height="96" viewBox="0 0 96 96" fill="none" xmlns="http://www.w3.org/2000/svg">
  <path
    d="M68.1594 44.5596L38.7594 15.1596L35.2794 11.6796C34.1194 10.5196 32.1994 10.5196 31.0394 11.6796C29.8794 12.8396 29.8794 14.7596 31.0394 15.9196L34.5194 19.3996L11.9994 41.9196C9.43943 44.4796 8.07943 47.0796 7.99943 49.6796C7.91943 52.4396 9.27943 55.1996 11.9994 57.9596L28.0394 73.9996C33.3994 79.3196 38.7594 79.3196 44.0794 73.9996L68.1594 49.9196C68.9594 49.1196 69.3194 48.0396 69.2394 46.9996C69.1994 46.1196 68.7994 45.1996 68.1594 44.5596Z"
    fill="white" />
  <path
    d="M77.4 61.1203C76.36 60.0003 74.44 60.0003 73.4 61.1203C72.16 62.4803 66 69.4003 66 74.6803C66 79.8803 70.2 84.0803 75.4 84.0803C80.6 84.0803 84.8 79.8803 84.8 74.6803C84.8 69.4403 78.64 62.4803 77.4 61.1203Z"
    fill="white" />
</svg>