<svg width="24" height="24" viewBox="0 0 24 24" fill="none" xmlns="http://www.w3.org/2000/svg">
<path d="M12.5602 4.90225C12.2991 4.69925 11.9365 4.69925 11.6754 4.90225C10.2973 5.9535 6.22833 9.38275 6.25009 13.3775C6.25009 16.611 8.88294 19.25 12.125 19.25C15.3672 19.25 18 16.6182 18 13.3848C18.0072 9.448 13.931 5.96075 12.5602 4.90225Z" fill="white"/>
<path d="M5.78066 5.02793L6.26754 4.5568C6.31375 4.51312 6.32979 4.44697 6.31631 4.38558C6.29878 4.3219 6.24887 4.27749 6.18688 4.26386L5.52642 4.10453L5.05677 3.61799C5.01322 3.57181 4.94718 3.55588 4.88584 3.56949C4.8222 3.58716 4.77774 3.63722 4.76401 3.6993L4.60359 4.36082L4.11671 4.83195C4.0705 4.87563 4.05446 4.94179 4.06794 5.00317C4.08547 5.06685 4.13538 5.11126 4.19737 5.12489L4.85607 5.27786L5.32573 5.76439C5.3356 5.77536 5.35184 5.78456 5.36807 5.79377C5.40866 5.81677 5.45441 5.8212 5.50302 5.81113C5.56667 5.79345 5.61112 5.7434 5.62486 5.68132L5.78066 5.02793Z" fill="white"/>
<path d="M20.7394 7.4655L21.218 7.50177C21.2629 7.5057 21.3055 7.48307 21.3316 7.44706C21.3571 7.40781 21.3572 7.36048 21.3352 7.32123L21.1089 6.89642L21.1457 6.41874C21.1497 6.37395 21.1271 6.33147 21.091 6.30538C21.0517 6.27998 21.0043 6.27998 20.9649 6.30191L20.539 6.52814L20.0604 6.49187C20.0155 6.48795 19.9729 6.51057 19.9468 6.54658C19.9213 6.58583 19.9212 6.63316 19.9432 6.67241L20.172 7.0933L20.1352 7.57097C20.1341 7.58136 20.1368 7.59429 20.1396 7.60722C20.1465 7.63954 20.1657 7.66586 20.1939 7.68688C20.2332 7.71227 20.2806 7.71228 20.32 7.69035L20.7394 7.4655Z" fill="white"/>
<path d="M20.5843 20.507L21.0493 20.392C21.0931 20.3818 21.1264 20.347 21.1399 20.3047C21.1519 20.2595 21.1371 20.2147 21.1041 20.1843L20.757 19.8522L20.6428 19.3879C20.6325 19.3442 20.5978 19.311 20.5555 19.2976C20.5103 19.2858 20.4654 19.3006 20.4349 19.3336L20.1018 19.681L19.6368 19.796C19.593 19.8063 19.5597 19.841 19.5461 19.8833C19.5342 19.9285 19.5489 19.9734 19.582 20.0037L19.9303 20.3313L20.0445 20.7956C20.0466 20.8058 20.0533 20.8172 20.06 20.8286C20.0766 20.8571 20.103 20.876 20.1363 20.8871C20.1815 20.8989 20.2264 20.8841 20.2569 20.8511L20.5843 20.507Z" fill="white"/>
<path d="M3.28946 19.9183L3.5006 19.7044C3.52065 19.6846 3.5271 19.6551 3.5205 19.628C3.51208 19.6 3.4895 19.5808 3.46187 19.5753L3.16738 19.5114L2.95418 19.3004C2.93441 19.2803 2.90496 19.2739 2.87789 19.2806C2.84985 19.2891 2.83064 19.3117 2.82518 19.3394L2.76073 19.6344L2.54959 19.8482C2.52954 19.8681 2.5231 19.8975 2.5297 19.9246C2.53811 19.9527 2.5607 19.9719 2.58832 19.9773L2.88198 20.0385L3.09517 20.2495C3.09966 20.2542 3.10695 20.2582 3.11424 20.2621C3.13248 20.2719 3.15281 20.2734 3.17426 20.2684C3.20231 20.2599 3.22151 20.2373 3.22698 20.2096L3.28946 19.9183Z" fill="white"/>
</svg>
