<svg width="96" height="96" viewBox="0 0 96 96" fill="none" xmlns="http://www.w3.org/2000/svg">
<path d="M93.9313 58.2117C92.8119 52.1047 90.9288 46.1649 88.327 40.5339C85.9811 35.4653 83.0716 30.6809 79.6543 26.2724C79.0945 25.5692 78.386 25.0004 77.5803 24.6073C76.7747 24.2142 75.8922 24.0068 74.9969 24C28.6355 24.7292 10.8569 51.4755 4.53582 66.4256H82.8972C85.0161 64.356 87.7484 63.0393 90.6787 62.6755C91.1906 62.6131 91.6843 62.4457 92.1295 62.1839C92.5747 61.922 92.9618 61.5711 93.2671 61.1529C93.5724 60.7347 93.7893 60.2579 93.9045 59.7521C94.0197 59.2463 94.0308 58.722 93.937 58.2117H93.9313ZM78.3855 49.286C78.0376 49.8126 77.5654 50.2442 77.0112 50.5421C76.4569 50.84 75.838 50.995 75.2096 50.9932H32.6796C32.2822 50.9969 31.8935 50.8762 31.5672 50.6478C31.241 50.4194 30.9934 50.0945 30.8586 49.7182C30.7239 49.3419 30.7087 48.9328 30.8152 48.5474C30.9217 48.162 31.1446 47.8195 31.453 47.5672C41.7395 39.3186 55.039 34.6908 71.0831 33.7841C71.4191 33.7674 71.7538 33.837 72.0556 33.9865C72.3574 34.1361 72.6164 34.3605 72.8081 34.6387C74.7014 37.4367 76.3679 40.3835 77.7913 43.4506C78.1133 44.1592 78.4232 44.8736 78.7209 45.5938C78.9725 46.1892 79.0736 46.8381 79.0151 47.4824C78.9566 48.1267 78.7402 48.7464 78.3855 49.286ZM3.0466 70.2837C2.68819 71.3138 2.3892 72.2513 2.15728 73.048C1.98777 73.6251 1.95473 74.2341 2.06081 74.8264C2.1669 75.4186 2.40916 75.9777 2.76823 76.4588C3.1273 76.94 3.59323 77.33 4.12878 77.5976C4.66433 77.8652 5.25465 78.0029 5.85255 77.9999H75.0927C76.0346 78.0059 76.9454 77.6611 77.6499 77.0319C78.3544 76.4026 78.8028 75.5333 78.9087 74.5913C79.0729 73.0967 79.4856 71.6405 80.1296 70.2837H3.0466Z" fill="white"/>
</svg>
