<svg width="179" height="34" viewBox="0 0 179 34" fill="none" xmlns="http://www.w3.org/2000/svg">
  <path
    d="M130.14 19.9342C129.383 19.1087 128.5 18.4132 127.523 17.8747C125.977 17.043 124.318 16.4476 122.601 16.1078C121.603 15.8996 120.594 15.7433 119.58 15.6397C116.191 15.277 112.756 15.4408 109.366 15.1132C108.387 15.0479 107.415 14.8991 106.461 14.6685C105.769 14.4813 104.49 14.1536 104.328 13.2877C104.167 12.4218 105.481 11.5676 106.173 11.3219C107.579 11.0019 109.033 10.9741 110.45 11.24C112.514 11.4578 114.562 11.8056 116.583 12.2814C120.964 13.2643 124.976 16.6227 126.382 11.8835C126.728 10.6823 126.776 9.41304 126.523 8.18834C126.269 6.96363 125.722 5.8213 124.93 4.86263C123.085 2.59253 120.318 1.6213 117.494 1.09473C114.116 0.401786 110.679 0.0490288 107.233 0.0415955C105.501 0.0785308 103.775 0.250661 102.069 0.556463C101.022 0.732467 99.9892 0.986692 98.9792 1.31706C97.117 1.85375 95.4668 2.96804 94.2596 4.50394C93.0524 6.03985 92.3485 7.92049 92.2466 9.88258C92.2298 11.216 92.6338 12.52 93.3994 13.6037C94.6267 15.0958 96.2161 16.2372 98.0108 16.9152C100.076 17.7151 102.241 18.2153 104.444 18.4013C107.833 18.764 111.257 18.6002 114.658 18.9279C115.673 18.975 116.683 19.1041 117.678 19.314C118.543 19.5363 120.122 20.2033 119.673 21.3969C119.535 21.7257 119.296 22.0006 118.992 22.1809C118.496 22.4882 117.949 22.7022 117.378 22.8128C116.116 22.9882 114.836 22.9882 113.574 22.8128C111.511 22.5902 109.463 22.2425 107.441 21.7713C103.049 20.7884 99.0368 17.4301 97.6419 22.1692C97.2869 23.3648 97.2275 24.6307 97.4688 25.8552C97.71 27.0797 98.2446 28.225 99.0253 29.1901C100.824 31.4485 103.637 32.4431 106.323 32.9814C109.739 33.6735 113.215 34.0145 116.698 33.9994C118.489 33.9819 120.275 33.8057 122.036 33.4729C123.079 33.2969 124.108 33.0427 125.114 32.7123C126.981 32.1862 128.637 31.0768 129.848 29.5413C131.058 28.0059 131.762 26.1226 131.858 24.1585C131.843 22.5783 131.228 21.065 130.14 19.9342Z"
    fill="#0094FF" />
  <path
    d="M70.41 0.041513C65.9946 -0.13401 51.2383 0.532977 51.2383 17.0087C51.2383 31.9165 60.069 33.7302 69.188 33.976H71.6666C80.774 33.777 89.6047 31.9633 89.6047 17.0789C89.5817 0.556381 74.8138 -0.110607 70.41 0.041513ZM71.1363 26.955H69.6722C64.323 26.838 59.1237 25.7849 59.1237 17.0087C59.1237 7.30816 67.8046 6.91031 70.41 7.01563C73.0039 6.91031 81.6963 7.30816 81.6963 17.0087C81.6963 25.7849 76.497 26.8497 71.1363 26.955Z"
    fill="#0094FF" />
  <path
    d="M176.402 0.860916C174.431 0.165227 172.339 -0.113528 170.258 0.0418091L154.118 0.135421L137.978 0.0418091C135.9 -0.113578 133.813 0.165199 131.845 0.860916C131.178 1.09219 130.582 1.49695 130.116 2.03487C129.651 2.57279 129.333 3.22508 129.194 3.92672C129.162 4.8846 129.469 5.82234 130.058 6.57126C130.551 7.30476 131.238 7.88104 132.041 8.23288C133.289 8.61148 134.625 8.56629 135.845 8.10417C140.457 6.79359 144.595 4.30117 149.218 3.15442C149.61 3.00222 150.029 2.93804 150.447 2.96633C150.865 2.99461 151.272 3.11468 151.639 3.31824C151.965 3.6706 152.194 4.10349 152.303 4.57371C152.412 5.04392 152.398 5.53499 152.262 5.99789C151.732 8.68445 150.774 11.2653 149.426 13.639C148.062 16.0127 146.904 18.5029 145.967 21.0812C145.054 23.676 145.026 26.507 145.887 29.1201C146.375 30.3797 147.168 31.4943 148.192 32.3614C148.748 32.8519 149.379 33.2471 150.06 33.5316C150.756 33.7903 151.487 33.9403 152.227 33.9763H154.095H155.974C156.714 33.939 157.445 33.7891 158.141 33.5316C158.821 33.2449 159.452 32.8499 160.009 32.3614C160.571 31.8809 161.068 31.326 161.485 30.7115C161.818 30.2155 162.093 29.6814 162.303 29.1201C163.176 26.5089 163.147 23.6738 162.222 21.0812C161.304 18.5048 160.166 16.0146 158.821 13.639C157.475 11.2635 156.513 8.68349 155.974 5.99789C155.839 5.53399 155.827 5.04231 155.938 4.57205C156.049 4.10178 156.28 3.66942 156.608 3.31824C156.976 3.11468 157.383 2.99461 157.801 2.96633C158.219 2.93804 158.638 3.00222 159.029 3.15442C163.64 4.32457 167.825 6.79359 172.402 8.10417C173.618 8.56623 174.951 8.61144 176.195 8.23288C176.979 7.87681 177.65 7.30536 178.132 6.58297C178.725 5.83657 179.032 4.89706 178.996 3.93842C178.864 3.24123 178.555 2.59097 178.1 2.05145C177.645 1.51192 177.06 1.10166 176.402 0.860916Z"
    fill="#0094FF" />
  <path
    d="M48.3227 22.333C46.1323 8.51346 49.4525 -0.356295 38.1778 0.0415572C26.903 0.439409 24.7357 18.9278 24.7357 18.9278H23.871C23.871 18.9278 21.6922 0.462812 10.3944 0.0415572C-0.903443 -0.379698 2.4052 8.50176 0.249395 22.2745C-1.6182 34.5377 7.61603 33.976 7.61603 33.976C13.7376 34.0813 15.2709 30.6879 15.5937 28.3242C15.7136 27.2343 15.6116 26.131 15.2939 25.0828C14.0604 20.6011 12.5732 15.7216 14.8097 15.3823C17.0462 15.0429 17.6342 16.7279 18.8908 24.5212C20.0436 31.6942 24.2976 31.3666 24.2976 31.3666C24.2976 31.3666 28.5516 31.6942 29.7044 24.5212C30.961 16.7279 31.6066 15.078 33.797 15.3823C35.9874 15.6865 34.5463 20.6011 33.3013 25.0828C32.9836 26.131 32.8816 27.2343 33.0015 28.3242C33.3243 30.6645 34.8576 34.0813 40.9791 33.976C40.9791 33.976 50.2249 34.5377 48.3227 22.333Z"
    fill="#0094FF" />
</svg>