<svg width="179" height="34" viewBox="0 0 179 34" fill="none" xmlns="http://www.w3.org/2000/svg">
  <path
    d="M130.14 19.9342C129.383 19.1087 128.499 18.4132 127.523 17.8747C125.976 17.043 124.318 16.4476 122.6 16.1078C121.602 15.8996 120.594 15.7433 119.58 15.6397C116.19 15.277 112.755 15.4408 109.365 15.1132C108.387 15.0479 107.415 14.8991 106.46 14.6685C105.769 14.4813 104.489 14.1536 104.328 13.2877C104.166 12.4218 105.48 11.5676 106.172 11.3219C107.578 11.0019 109.033 10.9741 110.449 11.24C112.513 11.4578 114.561 11.8056 116.582 12.2814C120.963 13.2643 124.975 16.6227 126.381 11.8835C126.727 10.6823 126.775 9.41304 126.522 8.18834C126.268 6.96363 125.721 5.8213 124.929 4.86263C123.084 2.59253 120.317 1.6213 117.493 1.09473C114.115 0.401786 110.679 0.0490288 107.233 0.0415955C105.501 0.0785308 103.774 0.250661 102.068 0.556463C101.021 0.732467 99.9884 0.986692 98.9784 1.31706C97.1163 1.85375 95.4661 2.96804 94.2588 4.50394C93.0516 6.03985 92.3478 7.92049 92.2458 9.88258C92.2291 11.216 92.633 12.52 93.3987 13.6037C94.6259 15.0958 96.2153 16.2372 98.01 16.9152C100.075 17.7151 102.24 18.2153 104.443 18.4013C107.832 18.764 111.256 18.6002 114.657 18.9279C115.672 18.975 116.682 19.1041 117.677 19.314C118.542 19.5363 120.121 20.2033 119.672 21.3969C119.534 21.7257 119.296 22.0006 118.992 22.1809C118.495 22.4882 117.949 22.7022 117.378 22.8128C116.115 22.9882 114.836 22.9882 113.573 22.8128C111.51 22.5902 109.462 22.2425 107.44 21.7713C103.048 20.7884 99.036 17.4301 97.6411 22.1692C97.2862 23.3648 97.2267 24.6307 97.468 25.8552C97.7093 27.0797 98.2438 28.225 99.0245 29.1901C100.823 31.4485 103.636 32.4431 106.322 32.9814C109.738 33.6735 113.214 34.0145 116.698 33.9994C118.488 33.9819 120.274 33.8057 122.035 33.4729C123.078 33.2969 124.107 33.0427 125.113 32.7123C126.98 32.1862 128.636 31.0768 129.847 29.5413C131.057 28.0059 131.761 26.1226 131.857 24.1585C131.842 22.5783 131.227 21.065 130.14 19.9342Z"
    fill="white" />
  <path
    d="M70.4112 0.041513C65.9958 -0.13401 51.2395 0.532977 51.2395 17.0087C51.2395 31.9165 60.0702 33.7302 69.1892 33.976H71.6678C80.7752 33.777 89.6059 31.9633 89.6059 17.0789C89.5829 0.556381 74.815 -0.110607 70.4112 0.041513ZM71.1374 26.955H69.6733C64.3242 26.838 59.1249 25.7849 59.1249 17.0087C59.1249 7.30816 67.8058 6.91031 70.4112 7.01563C73.005 6.91031 81.6974 7.30816 81.6974 17.0087C81.6974 25.7849 76.4981 26.8497 71.1374 26.955Z"
    fill="white" />
  <path
    d="M176.403 0.860916C174.432 0.165227 172.34 -0.113528 170.259 0.0418091L154.119 0.135421L137.979 0.0418091C135.901 -0.113578 133.814 0.165199 131.846 0.860916C131.179 1.09219 130.583 1.49695 130.117 2.03487C129.652 2.57279 129.334 3.22508 129.195 3.92672C129.163 4.8846 129.47 5.82234 130.059 6.57126C130.552 7.30476 131.239 7.88104 132.042 8.23288C133.29 8.61148 134.626 8.56629 135.846 8.10417C140.458 6.79359 144.596 4.30117 149.219 3.15442C149.61 3.00222 150.03 2.93804 150.448 2.96633C150.866 2.99461 151.272 3.11468 151.64 3.31824C151.966 3.6706 152.195 4.10349 152.304 4.57371C152.413 5.04392 152.399 5.53499 152.263 5.99789C151.733 8.68445 150.775 11.2653 149.427 13.639C148.063 16.0127 146.905 18.5029 145.968 21.0812C145.055 23.676 145.027 26.507 145.888 29.1201C146.376 30.3797 147.169 31.4943 148.193 32.3614C148.749 32.8519 149.38 33.2471 150.061 33.5316C150.757 33.7903 151.488 33.9403 152.228 33.9763H154.096H155.975C156.715 33.939 157.446 33.7891 158.142 33.5316C158.822 33.2449 159.453 32.8499 160.01 32.3614C160.572 31.8809 161.069 31.326 161.486 30.7115C161.819 30.2155 162.094 29.6814 162.304 29.1201C163.177 26.5089 163.148 23.6738 162.223 21.0812C161.305 18.5048 160.167 16.0146 158.822 13.639C157.476 11.2635 156.514 8.68349 155.975 5.99789C155.84 5.53399 155.828 5.04231 155.939 4.57205C156.05 4.10178 156.281 3.66942 156.609 3.31824C156.977 3.11468 157.384 2.99461 157.802 2.96633C158.22 2.93804 158.639 3.00222 159.03 3.15442C163.641 4.32457 167.826 6.79359 172.403 8.10417C173.619 8.56623 174.952 8.61144 176.196 8.23288C176.98 7.87681 177.651 7.30536 178.132 6.58297C178.726 5.83657 179.033 4.89706 178.997 3.93842C178.865 3.24123 178.556 2.59097 178.101 2.05145C177.646 1.51192 177.061 1.10166 176.403 0.860916Z"
    fill="white" />
  <path
    d="M48.3227 22.333C46.1323 8.51346 49.4525 -0.356295 38.1778 0.0415572C26.903 0.439409 24.7357 18.9278 24.7357 18.9278H23.871C23.871 18.9278 21.6922 0.462812 10.3944 0.0415572C-0.903443 -0.379698 2.4052 8.50176 0.249395 22.2745C-1.6182 34.5377 7.61603 33.976 7.61603 33.976C13.7376 34.0813 15.2709 30.6879 15.5937 28.3242C15.7136 27.2343 15.6116 26.131 15.2939 25.0828C14.0604 20.6011 12.5732 15.7216 14.8097 15.3823C17.0462 15.0429 17.6342 16.7279 18.8908 24.5212C20.0436 31.6942 24.2976 31.3666 24.2976 31.3666C24.2976 31.3666 28.5516 31.6942 29.7044 24.5212C30.961 16.7279 31.6066 15.078 33.797 15.3823C35.9874 15.6865 34.5463 20.6011 33.3013 25.0828C32.9836 26.131 32.8816 27.2343 33.0015 28.3242C33.3243 30.6645 34.8576 34.0813 40.9791 33.976C40.9791 33.976 50.2249 34.5377 48.3227 22.333Z"
    fill="white" />
</svg>