<svg width="96" height="96" viewBox="0 0 96 96" fill="none" xmlns="http://www.w3.org/2000/svg">
  <path
    d="M65.302 21.502L66.942 15.942C67.102 15.422 66.942 14.862 66.582 14.462C66.222 14.062 65.582 13.902 65.062 14.062L59.502 15.702L53.942 14.062C53.422 13.902 52.862 14.062 52.462 14.422C52.062 14.822 51.942 15.382 52.102 15.902L53.702 21.502L52.062 27.062C51.902 27.582 52.062 28.142 52.422 28.542C52.822 28.942 53.382 29.062 53.902 28.902L59.502 27.302L65.062 28.942C65.222 28.982 65.342 29.022 65.502 29.022C65.902 29.022 66.262 28.862 66.582 28.582C66.982 28.182 67.102 27.622 66.942 27.102L65.302 21.502Z"
    fill="white" />
  <path
    d="M33.2808 68.3943L29.1743 64.3028C28.7934 63.9143 28.2248 63.7881 27.7016 63.914C27.1593 64.075 26.787 64.5101 26.6798 65.0435L25.4177 70.7292L21.3262 74.8357C20.9377 75.2166 20.8115 75.7851 20.9374 76.3084C21.0984 76.8506 21.5336 77.223 22.067 77.3302L27.7526 78.5923L31.8591 82.6838C32.24 83.0723 32.8086 83.1985 33.3318 83.0726C33.8741 82.9116 34.2464 82.4764 34.3536 81.943L35.5615 76.2735L39.653 72.167C39.7453 72.0806 39.8216 71.9399 39.8978 71.7992C40.0885 71.4476 40.1194 71.0548 40.0257 70.6401C39.8647 70.0978 39.4295 69.7254 38.8961 69.6183L33.2808 68.3943Z"
    fill="white" />
  <path
    d="M28.8512 40.841L30.7987 38.9565C30.9835 38.7817 31.0477 38.5171 30.9938 38.2716C30.9236 38.0169 30.724 37.8392 30.4761 37.7847L27.8342 37.1474L25.9556 35.2012C25.7814 35.0165 25.5172 34.9528 25.2719 35.0072C25.0173 35.0779 24.8395 35.2781 24.7845 35.5264L24.1429 38.1725L22.1954 40.0571C22.0105 40.2318 21.9464 40.4964 22.0003 40.7419C22.0704 40.9967 22.27 41.1743 22.518 41.2288L25.1528 41.8407L27.0314 43.7868C27.0709 43.8307 27.1359 43.8675 27.2008 43.9043C27.3632 43.9963 27.5462 44.0141 27.7406 43.9738C27.9952 43.9031 28.173 43.7029 28.2279 43.4545L28.8512 40.841Z"
    fill="white" />
  <path
    d="M54.0457 56.3213L55.4227 54.9888C55.5534 54.8653 55.5987 54.6782 55.5606 54.5046C55.511 54.3245 55.3699 54.1989 55.1946 54.1603L53.3267 53.7097L51.9984 52.3337C51.8752 52.2031 51.6884 52.158 51.515 52.1965C51.335 52.2465 51.2092 52.3881 51.1704 52.5637L50.7167 54.4346L49.3397 55.767C49.209 55.8906 49.1637 56.0777 49.2018 56.2513C49.2514 56.4314 49.3925 56.557 49.5678 56.5955L51.4308 57.0281L52.7591 58.4041C52.787 58.4352 52.8329 58.4612 52.8788 58.4872C52.9936 58.5523 53.123 58.5648 53.2605 58.5363C53.4405 58.4863 53.5662 58.3448 53.6051 58.1692L54.0457 56.3213Z"
    fill="white" />
  <path
    d="M78.8225 57.6859L82.2944 57.312C82.6206 57.2807 82.8954 57.0626 83.0351 56.7704C83.1655 56.456 83.1033 56.1174 82.8945 55.8658L80.7011 53.1587L80.3331 49.694C80.3024 49.3685 80.0843 49.0946 79.7919 48.9557C79.4771 48.8261 79.1378 48.8889 78.8853 49.0978L76.1689 51.2921L72.697 51.666C72.3708 51.6973 72.096 51.9154 71.9563 52.2076C71.8258 52.522 71.8881 52.8606 72.0969 53.1122L74.2902 55.8193L74.6583 59.284C74.6637 59.3598 74.7005 59.4486 74.7374 59.5374C74.8295 59.7594 75.0015 59.9223 75.231 60.0352C75.5457 60.1648 75.885 60.1021 76.1375 59.8932L78.8225 57.6859Z"
    fill="white" />
</svg>