<svg width="96" height="96" viewBox="0 0 96 96" fill="none" xmlns="http://www.w3.org/2000/svg">
  <path
    d="M77.9991 30L72.0391 35.96L60.0391 23.96L65.9991 18C67.6791 16.32 69.8391 15.52 71.9991 15.52C74.1591 15.52 76.3191 16.32 77.9991 18C81.3191 21.32 81.3191 26.68 77.9991 30Z"
    fill="white" />
  <path
    d="M69.2378 38.7998L25.9978 81.9998C22.6778 85.3198 17.3178 85.3198 13.9978 81.9998C10.6778 78.6798 10.6778 73.3198 13.9978 69.9998L57.2378 26.7998L69.2378 38.7998Z"
    fill="white" />
  <path
    d="M39.802 14.0001L41.442 8.44007C41.602 7.92007 41.442 7.36007 41.082 6.96007C40.722 6.56007 40.082 6.40007 39.562 6.56007L34.002 8.20007L28.442 6.56007C27.922 6.40007 27.362 6.56007 26.962 6.92007C26.562 7.32007 26.442 7.88007 26.602 8.40007L28.202 14.0001L26.562 19.5601C26.402 20.0801 26.562 20.6401 26.922 21.0401C27.322 21.4401 27.882 21.5601 28.402 21.4001L34.002 19.8001L39.562 21.4401C39.722 21.4801 39.842 21.5201 40.002 21.5201C40.402 21.5201 40.762 21.3601 41.082 21.0801C41.482 20.6801 41.602 20.1201 41.442 19.6001L39.802 14.0001Z"
    fill="white" />
  <path
    d="M23.802 38.0001L25.442 32.4401C25.602 31.9201 25.442 31.3601 25.082 30.9601C24.682 30.5601 24.122 30.4401 23.602 30.6001L18.002 32.2001L12.442 30.5601C11.922 30.4001 11.362 30.5601 10.962 30.9201C10.562 31.3201 10.442 31.8801 10.602 32.4001L12.202 38.0001L10.562 43.5601C10.402 44.0801 10.562 44.6401 10.922 45.0401C11.322 45.4401 11.882 45.5601 12.402 45.4001L17.962 43.7601L23.522 45.4001C23.642 45.4401 23.802 45.4401 23.962 45.4401C24.362 45.4401 24.722 45.2801 25.042 45.0001C25.442 44.6001 25.562 44.0401 25.402 43.5201L23.802 38.0001Z"
    fill="white" />
  <path
    d="M83.7989 57.9998L85.4389 52.4398C85.5989 51.9198 85.4389 51.3598 85.0789 50.9598C84.6789 50.5598 84.1189 50.4398 83.5989 50.5998L78.0389 52.2398L72.4789 50.5998C71.9589 50.4398 71.3989 50.5998 70.9989 50.9598C70.5989 51.3598 70.4789 51.9198 70.6389 52.4398L72.2789 57.9998L70.6389 63.5598C70.4789 64.0798 70.6389 64.6398 70.9989 65.0398C71.3989 65.4398 71.9589 65.5598 72.4789 65.3998L78.0389 63.7598L83.5989 65.3998C83.7189 65.4398 83.8789 65.4398 84.0389 65.4398C84.4389 65.4398 84.7989 65.2798 85.1189 64.9998C85.5189 64.5998 85.6389 64.0398 85.4789 63.5198L83.7989 57.9998Z"
    fill="white" />
</svg>