<svg width="300" height="286" viewBox="0 0 300 286" fill="none" xmlns="http://www.w3.org/2000/svg">
<path d="M35.8039 13.3399C33.7617 28.8301 33.6122 41.181 37.7754 58.2259C44.032 83.842 57.5113 99.2442 72.2628 116.277C78.3153 123.265 86.0954 132.238 96.4301 140.87C101.254 144.898 103.454 148.159 109.241 150.61" stroke="black" stroke-width="4.06057" stroke-linecap="round"/>
<path d="M45.4688 34.9881C43.6488 28.3274 41.9545 21.6456 39.6843 15.1199C39.0254 13.2261 38.345 11.3168 37.3819 9.58718C37.2347 9.32284 33.0132 15.9981 32.7351 16.43C29.2496 21.8436 25.5098 27.0193 22.6606 32.8115" stroke="black" stroke-width="4.06057" stroke-linecap="round"/>
<path d="M268.147 35.1082C269.281 50.6912 268.709 63.0298 263.558 79.8025C255.816 105.01 241.461 119.599 225.74 135.741C219.29 142.364 210.999 150.867 200.178 158.881C195.127 162.621 192.74 165.748 186.82 167.856" stroke="black" stroke-width="4.06057" stroke-linecap="round"/>
<path d="M257.235 56.1552C259.44 49.6121 261.522 43.0407 264.169 36.6586C264.938 34.8066 265.728 32.9402 266.791 31.2698C266.953 31.0145 270.778 37.9248 271.03 38.3722C274.194 43.9801 277.625 49.3654 280.131 55.314" stroke="black" stroke-width="4.06057" stroke-linecap="round"/>
<path d="M104.509 267.068C104.676 269.888 106.423 271.733 106.521 274.556C106.619 277.379 108.318 278.168 108.318 278.168C108.318 278.168 139.359 281.869 159.283 281.896C181.576 281.926 213.952 288.126 223.916 268.162C224.415 263.525 224.722 258.929 225.023 254.275C225.169 252.012 225.47 249.641 225.372 247.383C225.364 247.178 225.313 247.004 225.237 246.816C227.3 246.063 229.29 244.938 231.207 243.876C237.389 240.45 244.126 235.988 247.26 229.38C249.058 225.587 249.183 221.054 248.901 216.933C248.543 211.722 247.328 206.604 246.124 201.536C244.572 195.246 242.852 189.002 240.965 182.804C239.078 176.606 237.026 170.463 234.81 164.374C233.104 159.809 231.274 155.294 229.32 150.83C224.206 139.17 219.719 132.602 207.898 127.119C205.125 125.834 201.828 124.447 198.807 123.972C200.087 121.304 199.442 113.317 198.455 110.531C197.536 107.931 195.749 105.549 193.195 104.377C192.219 103.93 191.224 103.8 190.161 103.741C188.906 101.326 187.36 99.5015 184.695 98.6426C183.642 98.3031 182.554 98.1907 181.456 98.0945C182.047 93.5105 181.965 88.699 181.378 84.1209C184.278 80.27 185.96 75.1697 185.26 70.3224C184.949 68.171 184.062 66.7504 182.729 65.089C183.097 59.6509 179.972 53.353 176.464 49.349C170.589 42.6434 162.017 38.9711 153.208 38.4274C144.144 37.8681 134.156 40.1837 127.233 46.3321C122.737 50.3245 120.13 55.1945 118.232 60.825C116.323 62.3103 115.136 64.1347 114.809 66.5711C114.412 69.54 115.42 76.7836 117.242 79.0916C118.24 80.3553 119.96 80.9803 121.413 81.5461C121.479 83.1382 121.597 84.7483 121.595 86.3409C121.277 91.6793 118.814 105.342 122.384 109.329C123.253 110.301 124.564 110.865 125.867 110.886C126.467 110.896 126.976 110.753 127.549 110.593L128.021 110.463C128.187 111.647 128.343 112.831 128.489 114.017C125.551 117.117 122.509 120.724 122.621 125.267C122.649 126.398 122.903 127.314 123.347 128.348C120.345 130.031 115.057 132.457 112.654 134.659C111.369 135.836 110.393 137.403 109.42 138.837C103.515 147.535 98.3447 158.989 95.4906 169.146C95.3465 169.655 95.2128 170.167 95.0893 170.682C90.9747 170.344 79.3133 169.035 75.726 170.526C74.757 171.44 74.6941 174.552 74.5401 175.9C74.2153 178.746 71.3118 209.129 70.8498 210.007C70.634 210.417 68.2709 211.804 67.6896 212.34C64.0299 215.716 60.5245 222.858 60.3659 227.82C60.3252 229.091 60.4028 230.377 60.4527 231.647L61.3219 232.759C60.8274 234.266 60.4055 235.669 60.306 237.266C60.0188 241.873 61.7999 247.853 63.8713 251.954C64.4333 253.067 65.0981 254.187 65.8974 255.149C65.7299 256.502 65.0843 259.227 66.0362 260.352C67.1156 261.627 72.4869 264.916 74.0488 265.372C76.2997 266.029 81.4137 265.906 83.9726 266.03L104.509 267.068Z" fill="black"/>
<path d="M128.862 96.9736C129.123 97.0923 129.326 97.1424 129.484 97.3984C130.015 98.2595 130.967 102.367 131.585 103.83C133.215 107.692 135.926 111.36 139.667 113.413C140.784 114.026 142.077 114.43 143.261 114.908L143.306 115.231C142.885 115.337 142.429 115.458 141.994 115.37C138.432 114.649 135.032 110.247 132.992 107.42C130.985 104.639 128.289 100.52 128.862 96.9736Z" fill="white"/>
<path d="M130.542 108.235C130.58 108.263 130.619 108.288 130.654 108.319C131.841 109.339 132.868 111.164 133.907 112.389C134.452 113.03 135.59 113.956 135.95 114.664C136.007 114.776 135.983 114.913 136 115.038C135.231 115.171 134.225 115.336 133.451 115.216C132.68 115.096 131.903 114.385 131.47 113.771C130.452 112.327 130.225 109.927 130.542 108.235Z" fill="white"/>
<path d="M133.305 265.069C139.228 265.316 143.802 265.057 149.477 267.357C144.66 267.232 139.863 266.785 135.05 266.577C134.432 266.099 133.857 265.622 133.305 265.069Z" fill="white"/>
<path d="M70.3523 213.533C70.7102 213.988 70.5131 215.346 70.5172 215.997C67.3876 219.388 65.2977 223.218 63.2819 227.329L63.0978 227.5C63.0899 227.383 63.0758 227.236 63.081 227.115C63.2627 222.879 67.3483 216.356 70.3523 213.533Z" fill="white"/>
<path d="M114.027 263.928C117.569 263.975 124.136 264.148 127.452 264.841L127.635 264.88C128.672 265.098 129.411 265.642 130.268 266.243C128.237 266.285 126.12 266.041 124.088 265.917C121.046 265.73 117.983 265.606 114.951 265.291C114.45 264.997 114.27 264.433 114.027 263.928Z" fill="white"/>
<path d="M168.913 102.939C169.807 103.531 171.637 106.176 172.556 107.168C171.522 108.225 170.346 108.882 169.028 109.527C168.029 109.975 166.975 110.321 165.946 110.694C167.031 108.146 167.962 105.539 168.913 102.939Z" fill="white"/>
<path d="M168.293 93.8269C168.313 93.9342 168.341 94.068 168.351 94.1799C168.771 98.8248 165.685 107.862 162.773 111.344C162.16 112.078 161.422 112.004 160.522 112.081C160.495 111.256 163.148 107.582 163.711 106.615C165.922 102.809 167.183 98.0677 168.293 93.8269Z" fill="white"/>
<path d="M179.974 254.512C180.054 254.601 180.178 254.729 180.247 254.835C182.204 257.848 181.004 263.811 180.346 267.129L180.081 267.166C179.439 266.521 178.823 265.846 178.199 265.185C178.436 263.057 178.801 256.878 179.398 255.239C179.505 254.945 179.748 254.718 179.974 254.512Z" fill="white"/>
<path d="M185.162 182.796C186.116 183.329 187.173 184.758 187.976 185.548C187.881 188.592 187.501 191.758 187.111 194.781C186.185 194.117 185.266 193.443 184.354 192.759C184.493 189.435 184.865 186.109 185.162 182.796Z" fill="white"/>
<path d="M159.031 266.259C164.171 265.952 170.798 266.735 176.049 267.04L178.05 269.018C176.657 268.891 175.263 268.781 173.868 268.69C167.012 268.411 160.15 267.905 153.3 267.492C155.264 267.231 157.136 266.828 159.031 266.259Z" fill="white"/>
<path d="M73.4214 261.708C76.4071 261.58 79.55 261.917 82.5383 262.073L101.623 263.237C103.752 263.369 108.5 263.258 110.356 263.755C110.882 263.896 111.093 264.48 111.351 264.914L87.2901 263.562C83.4843 263.351 79.569 263.446 75.7965 262.951C74.8514 262.827 74.176 262.251 73.4214 261.708Z" fill="white"/>
<path d="M176.212 256.646L176.463 256.76C176.501 259.246 175.875 262.002 175.553 264.483C172.015 264.233 168.489 263.992 164.942 263.91C164.705 263.89 164.569 263.815 164.356 263.714C165.478 262.968 166.915 262.797 168.093 262.062C169.492 261.19 170.376 259.933 171.614 258.902C172.756 257.951 174.83 257.276 176.212 256.646Z" fill="white"/>
<path d="M123.941 91.8539C126.834 96.6451 125.942 100.547 128.809 105.715C128.453 106.41 128.025 107.062 127.608 107.72C127.069 107.951 126.381 108.171 125.79 108.136C125.127 108.097 124.598 107.775 124.192 107.259C122.05 104.536 123.556 95.4643 123.941 91.8539Z" fill="white"/>
<path d="M184.117 195.964C185.034 196.559 185.958 197.123 186.91 197.66L186.114 208.277C185.97 210.215 185.956 212.252 185.588 214.155L185.216 214.391L182.584 215.406C182.672 212.42 183.012 209.421 183.242 206.442C183.512 202.955 183.695 199.435 184.117 195.964Z" fill="white"/>
<path d="M107.485 147.075C107.705 147.806 105.98 152.581 105.642 153.78C104.024 159.507 102.793 165.265 101.591 171.088L97.9129 170.877L97.7559 170.688C97.565 167.9 105.68 150.351 107.485 147.075Z" fill="white"/>
<path d="M221.821 248.224C222.203 248.196 222.344 248.138 222.683 248.333C222.574 250.153 222.561 255.082 221.774 256.496C219.454 258.07 214.432 259.309 211.675 260.014L211.542 259.996C210.848 258.949 212.103 254.08 211.241 252.32C213.234 251.85 220.175 249.299 221.821 248.224Z" fill="white"/>
<path d="M170.84 80.3113C173.355 81.4198 175.201 83.6205 177.78 84.6477C178.229 84.8265 178.668 84.8555 178.865 85.3403C179.715 87.4313 178.941 97.5675 178.512 100.141C178.328 101.251 178.016 102.263 177.609 103.31C177.437 103.605 177.227 103.908 176.971 104.135C176.473 104.577 175.745 104.806 175.085 104.738C173.428 104.567 172.29 103.109 171.379 101.883C171.182 94.686 171.177 87.5102 170.84 80.3113Z" fill="white"/>
<path d="M207.741 253.304C208.104 253.269 208.383 253.209 208.712 253.413C208.82 255.3 209.029 259.122 208.421 260.831C203.2 262.934 189.54 264.605 183.869 264.782L183.65 264.715C183.062 263.713 183.956 259.95 184.143 258.643C188.518 258.31 203.875 255.35 207.741 253.304Z" fill="white"/>
<path d="M129.72 116.367L130.241 116.81C130.841 118.405 128.711 121.276 129.742 123.816C130.648 126.051 132.411 128.173 133.942 130.01C135.5 131.88 137.585 133.536 138.883 135.587C140.818 138.642 140.601 148.482 140.642 152.39C139.835 150.986 138.928 149.625 138.065 148.254C135.067 143.602 131.811 139.245 128.238 135.019C129.397 135.045 130.735 135.149 131.755 134.488C132.166 134.223 132.241 134.005 132.323 133.546C131.742 131.642 128.636 130.475 127.194 129.14C126.015 128.05 125.267 126.694 125.23 125.068C125.155 121.715 127.514 118.662 129.72 116.367Z" fill="white"/>
<path d="M169.476 228.177C169.563 228.174 169.65 228.156 169.736 228.168C171.128 228.362 173.05 231.517 173.804 232.687C171.737 233.647 166.957 235.237 165.465 236.616C165.173 236.886 165.132 237.147 165.147 237.534C165.168 238.088 165.246 238.208 165.654 238.571C167.648 239.046 172.906 235.959 174.856 235.015C175.776 236.889 176.39 238.958 176.918 240.972C174.402 242.228 171.571 243.086 169.177 244.533C168.873 245.036 168.925 245.211 168.937 245.785C169.127 246.065 169.178 246.241 169.51 246.369C171.187 247.011 175.954 244.229 177.67 243.494L178.511 246.626C177.098 247.106 175.732 247.733 174.361 248.32C173.442 248.712 172.497 249.079 171.598 249.514C171.017 249.796 170.698 250.08 170.482 250.698C170.541 251.296 170.507 251.386 170.92 251.855C172.937 252.497 177.011 249.933 178.913 249.01C179.192 249.935 179.363 250.9 179.562 251.846C176.49 253.322 173.552 255 170.405 256.323C169.413 248.273 164.966 239.87 161.368 232.686C163.863 230.866 166.72 229.552 169.476 228.177Z" fill="white"/>
<path d="M78.7431 172.805C84.254 172.294 89.9393 172.979 95.4496 173.359L115.307 174.625C115.209 176.523 115.159 183.918 114.461 185.242L113.77 185.359C101.4 184.75 89.0112 183.531 76.6538 182.644C76.8075 179.576 77.0296 176.307 77.5876 173.287C77.9381 172.866 78.2166 172.91 78.7431 172.805Z" fill="white"/>
<path d="M174.634 108.183C178.998 108.82 185.348 109.019 188.895 111.864C191.677 114.097 192.306 118.561 192.677 121.914L188.168 120.155C188.993 119.106 190.598 117.461 190.782 116.133C190.863 115.562 190.695 115.372 190.37 114.953C189.863 114.709 189.624 114.627 189.063 114.732C187.206 116.066 185.577 119.168 183.392 120.947C181.815 122.221 180.177 123.412 178.478 124.52C176.574 125.772 170.258 129.026 169.307 130.541C169.204 131.083 169.17 131.178 169.375 131.716C170.632 132.99 173.544 133.182 175.277 133.567C170.437 135.623 165.77 138.287 161.177 140.84C155.537 144.131 150.09 147.848 144.321 150.902C145.533 146.015 146.564 140.418 149.251 136.098C153.037 130.014 173.083 122.062 179.747 115.514C180.372 114.901 181.087 114.044 181.043 113.119C180.873 109.483 175.98 109.514 174.816 108.374C174.753 108.312 174.694 108.247 174.634 108.183Z" fill="white"/>
<path d="M133.325 175.961C141.212 176.334 149.152 177.196 157.018 177.888C165.164 178.606 174.482 179.26 182.461 180.795C182.143 184.452 181.856 188.112 181.598 191.774L181.486 191.886C180.478 192.146 155.757 189.117 152.5 188.781C146.007 188.133 139.51 187.528 133.009 186.966C133.088 183.297 133.193 179.629 133.325 175.961Z" fill="white"/>
<path d="M147.588 41.1301C154.802 40.4874 162.006 41.9894 168.183 45.797C174.882 49.9262 178.462 55.6978 180.239 63.2686C173.405 58.8965 165.757 56.1074 157.8 54.6557C146.225 52.6958 132.037 54.0727 121.49 59.4206C122.839 56.2615 124.494 53.2308 126.735 50.6086C131.921 44.5393 139.817 41.7275 147.588 41.1301Z" fill="white"/>
<path d="M145.353 56.5784C149.742 56.236 154.373 56.6126 158.688 57.4488C164.659 58.6055 178.306 62.9801 181.756 68.2384C183.057 70.221 183.012 73.0467 182.524 75.2785C182.13 77.0799 181.337 81.0563 179.676 82.0234C179.257 82.2675 178.887 82.3336 178.439 82.0987C175.998 80.8182 173.697 78.9577 171.364 77.4673C167.336 74.8939 162.72 73.4831 158.13 72.2955C149.971 70.814 136.818 70.4938 129.19 74.1912C127.865 74.8334 122.138 78.3948 121.486 78.4122C120.896 78.4279 120.183 78.0787 119.762 77.6856C118.15 76.1781 117.419 70.5924 117.305 68.3798C117.225 66.8454 117.529 65.381 118.588 64.2189C119.9 62.7794 122.009 61.9854 123.771 61.2375C130.933 58.1959 137.617 57.0108 145.353 56.5784Z" fill="white"/>
<path d="M124.938 130.472C125.837 130.945 126.786 132.024 127.566 132.709C126.98 132.858 126.218 132.969 125.682 133.233C125.167 133.486 125.104 133.773 124.935 134.268C125.071 135.897 128.503 139.363 129.668 140.824C133.856 146.072 137.315 152.047 140.647 157.868C140.627 163.161 140.376 168.46 140.178 173.749C134.823 173.111 129.354 172.924 123.97 172.568C117.42 172.402 110.774 171.77 104.236 171.263C104.988 166.163 106.789 159.149 108.259 154.152C109.908 148.547 112.368 139.019 116.888 135.211C119.174 133.287 122.31 131.906 124.938 130.472Z" fill="white"/>
<path d="M145.881 73.8538C147.447 73.7347 149.085 73.827 150.659 73.8303C151.6 74.6779 152.41 75.6561 153.241 76.6091C152.326 76.7941 151.408 76.9813 150.508 77.2305C149.678 77.4605 147.929 77.882 147.504 78.7076C147.275 79.1543 147.319 79.4523 147.46 79.9166C148.906 80.9544 151.275 79.5677 152.876 79.279C153.661 79.1373 154.51 79.1749 155.306 79.1774C156.168 79.7373 156.949 80.4644 157.779 81.0766C160.738 83.257 163.682 84.4684 167.302 85.0576C166.974 93.4581 163.125 104.248 158.172 111.033C154.706 111.613 151.227 112.186 147.717 112.423C147.299 112.472 146.879 112.509 146.458 112.531C143.413 112.674 140.545 111.34 138.341 109.307C131.452 102.955 130.509 90.4949 130.196 81.7069C133.147 80.635 135.47 81.04 138.498 80.9289C139.15 80.9048 139.612 80.914 140.065 80.4267C140.208 79.818 140.222 79.8096 139.929 79.26C138.345 77.9911 135.366 78.0136 133.458 78.2826C132.684 78.3918 131.703 78.6781 130.931 78.5817C130.457 78.5226 130.41 78.3972 130.117 78.0291C130.055 77.5033 129.976 77.2657 130.186 76.7708C134.972 74.3672 140.63 74.1009 145.881 73.8538Z" fill="white"/>
<path d="M152.599 82.7099C152.986 82.67 153.388 82.6421 153.773 82.7109C154.333 82.8112 154.836 83.2319 155.143 83.6964C155.619 84.4151 155.721 85.2833 155.545 86.1163C155.326 87.1503 154.882 87.6755 154.044 88.249C153.935 88.2439 153.827 88.239 153.719 88.2271C152.775 88.1225 152.021 87.7411 151.441 86.9685C150.97 86.3411 150.816 85.577 150.946 84.809C151.129 83.7319 151.764 83.2874 152.599 82.7099Z" fill="black"/>
<path d="M150.597 97.5718C150.803 97.6197 151.019 97.6623 151.213 97.7476C151.655 97.941 151.953 98.0721 152.135 98.5145C152.069 98.7461 152.006 98.9709 151.859 99.1665C150.572 100.872 145.925 101.168 143.895 101.501C143.57 101.449 143.258 101.354 142.941 101.267C142.738 101.055 142.489 100.828 142.401 100.54C142.279 100.145 142.378 100.065 142.561 99.7237C144.134 98.4774 148.512 98.0699 150.597 97.5718Z" fill="black"/>
<path d="M134.697 83.5259C135.022 83.5167 135.361 83.5032 135.684 83.5495C136.324 83.6408 136.933 84.0653 137.3 84.587C137.826 85.3349 137.927 86.3018 137.711 87.1751C137.444 88.2565 136.888 88.9803 135.93 89.5259C135.677 89.4936 135.418 89.4576 135.173 89.3818C134.307 89.1128 133.61 88.3976 133.185 87.6191C132.762 86.8457 132.653 85.9306 132.95 85.0936C133.272 84.1845 133.881 83.8954 134.697 83.5259Z" fill="black"/>
<path d="M142.325 86.0996C142.896 86.1216 143.579 86.1495 144.067 86.4889C145.761 87.6662 142.413 90.5268 142.546 92.0324C143.45 92.7678 144.936 92.4829 145.856 93.2037C146.147 93.431 146.133 93.5756 146.185 93.9148C146.013 94.3991 145.759 94.7488 145.455 95.1598C144.332 95.2914 142.954 95.1996 141.893 94.7865C141.144 94.4948 140.538 94.002 140.237 93.2373C139.462 91.2655 141.496 87.8956 142.325 86.0996Z" fill="black"/>
<path d="M117.965 174.978C122.234 175.192 126.566 175.31 130.813 175.795C130.26 184.895 128.109 260.817 127.251 262.041L126.683 262.072C122.287 261.821 117.893 261.535 113.502 261.213C113.576 256.994 113.895 252.74 114.086 248.521C114.517 238.843 115.001 229.167 115.539 219.494C116.353 204.649 116.932 189.814 117.965 174.978Z" fill="white"/>
<path d="M132.869 189.603C139.501 190.399 146.192 190.905 152.839 191.573C162.335 192.543 171.822 193.599 181.299 194.74C181.027 201.941 180.132 209.139 179.761 216.342C177.063 217.582 168.352 221.715 167.127 224.292C166.852 224.873 167.266 225.701 167.47 226.267C164.919 227.335 160.952 229.103 159.16 231.251C158.714 231.785 158.497 232.242 158.575 232.941C158.58 232.986 158.587 233.03 158.593 233.074C158.185 233.574 147.511 236.142 146.054 236.608C143.396 237.456 140.937 238.508 138.47 239.805C137.745 240.171 136.996 240.542 136.352 241.041C135.569 241.647 134.997 242.725 134.9 243.711C134.821 244.524 135.012 245.369 135.556 245.996C137.982 248.789 143.175 244.682 146.192 245.104C146.668 245.17 146.685 245.225 146.958 245.617C146.931 245.737 146.889 246.11 146.828 246.193C146.483 246.652 145.185 247.338 144.664 247.704C141.774 249.733 137.586 252.376 135.712 255.4C135.068 256.438 134.691 257.601 135.014 258.825C135.503 260.674 137.103 261.742 138.679 262.605C135.825 262.529 132.963 262.304 130.113 262.131C130.895 251.063 131.101 239.887 131.415 228.796C131.823 215.728 132.308 202.664 132.869 189.603Z" fill="white"/>
<path d="M76.3426 185.315C79.9836 185.396 83.698 185.825 87.3357 186.087L114.497 188.216L110.796 261.118C109.523 260.991 108.237 260.955 106.96 260.89C102.091 260.311 97.0461 260.223 92.1457 259.961L68.2473 258.644C69.206 250.967 69.9017 243.259 70.7853 235.574C72.7428 218.833 74.5953 202.08 76.3426 185.315Z" fill="white"/>
<path d="M186.032 122.364C188.369 123.149 190.66 124.066 193.005 124.822C200.914 127.372 208.73 129.649 215.346 134.915C217.792 136.862 219.887 139.035 221.585 141.67C223.333 144.38 224.637 147.334 225.996 150.25C232.592 164.409 237.494 179.433 241.569 194.496C243.389 201.227 245.24 208.102 246.024 215.041C246.675 220.795 246.528 226.842 242.716 231.561C231.996 244.836 199.941 254.318 183.188 256.032C180.899 247.217 179.979 235.727 173.999 228.461C172.793 226.995 171.402 225.912 169.898 224.779C177.832 219.492 186.495 216.754 195.524 214.002C197.812 213.304 200.364 213.054 202.554 212.136C206.271 213.871 209.43 220.414 210.894 224.128C211.642 226.027 212.236 228.588 213.635 230.074C214.164 230.265 214.289 230.282 214.844 230.195C215.221 229.892 215.406 229.724 215.476 229.222C215.839 226.605 210.951 217.668 209.232 215.206C208.224 213.763 206.984 212.593 205.93 211.206L206.084 210.971C207.486 211.294 208.89 211.923 210.249 212.405C214.614 213.956 221.151 216.539 225.733 216.733C226.473 216.764 227.132 216.676 227.69 216.171C227.888 215.63 227.839 215.517 227.728 214.97C227.677 214.9 227.631 214.826 227.576 214.759C227.509 214.674 227.381 214.556 227.292 214.498C226.375 213.887 219.017 212.469 217.35 211.989C214.096 211.054 210.894 209.457 207.586 208.828C212.635 208.286 218.087 207.994 222.954 206.519C223.764 206.273 224.467 206.001 224.879 205.214C224.873 204.864 224.917 204.658 224.719 204.358C224.434 203.928 223.979 203.659 223.464 203.596C222.645 203.497 219.348 204.585 218.174 204.788C213.736 205.553 209.238 205.868 204.769 206.384C204.029 206.469 202.747 206.537 202.172 207.069C201.584 207.613 201.727 208.753 201.727 209.482C201.426 209.953 201.399 209.903 200.884 210.029C200.258 209.338 196.375 188.006 195.895 185.296C195.331 182.095 194.9 176.412 193.36 173.682C192.935 173.448 192.824 173.533 192.357 173.617C191.818 173.989 191.549 174.379 191.454 175.042C191.235 176.585 192.029 179.163 192.298 180.74C193.462 187.41 194.701 194.067 196.015 200.711C196.6 203.632 197.397 206.536 197.885 209.473C197.951 209.857 197.975 210.155 197.869 210.535C197.858 210.571 197.845 210.606 197.834 210.642C196.692 211.095 195.318 211.331 194.13 211.661C192.184 212.214 190.252 212.816 188.336 213.468C188.767 210.367 188.922 207.206 189.166 204.085C189.668 197.7 190.101 191.284 190.828 184.92C189.288 182.494 186.569 180.389 184.531 178.349C179.388 177.318 173.937 176.836 168.716 176.299C160.136 175.436 151.549 174.652 142.955 173.947L143.407 154.529C150.483 150.457 157.37 145.982 164.558 142.111C168.037 140.27 171.533 138.461 175.044 136.683C176.688 135.863 178.58 135.153 180.123 134.182C180.407 134.003 180.585 133.765 180.744 133.476C180.829 132.882 180.861 132.796 180.594 132.267C178.988 131.043 175.953 130.845 173.969 130.468C178.172 128.101 182.385 125.539 186.032 122.364Z" fill="white"/>
<path d="M206.252 132.594C206.77 132.502 207.321 132.372 207.814 132.618C208.373 132.896 208.622 133.264 208.779 133.846C208.676 134.22 208.644 134.438 208.337 134.709C207.611 135.356 206.361 135.781 205.499 136.275C204.57 136.816 203.68 137.414 202.831 138.071C201.981 138.728 201.178 139.437 200.421 140.199C198.195 142.438 196.552 145.081 195.394 148.007C193.618 152.503 193.317 157.459 193.385 162.247C193.409 163.973 193.669 166.009 193.407 167.705C193.333 168.167 193.059 168.476 192.748 168.807C192.447 168.796 192.086 168.805 191.796 168.721C191.509 168.638 191.259 168.402 191.115 168.15C189.66 165.634 190.896 154.104 191.604 151.04C192.984 145.056 195.92 139.657 200.917 135.959C202.627 134.694 204.46 133.716 206.252 132.594Z" fill="black"/>
</svg>
