<svg width="96" height="96" viewBox="0 0 96 96" fill="none" xmlns="http://www.w3.org/2000/svg">
  <path
    d="M56.0005 54.6368L51.4238 54.0221C50.5086 53.8999 49.7911 54.2862 49.6308 54.9882L48.03 62.0097C47.8697 62.7124 48.3733 63.2621 49.2884 63.3851L53.8651 63.9998L56.0005 54.6368Z"
    fill="white" />
  <path
    d="M80.0005 32.6962C80.0005 40.1762 76.2814 46.2962 70.884 49.3598C69.5258 50.0398 68.8574 51.3998 68.516 52.7598L63.7872 79.2798C63.4458 80.9833 62.0947 81.9998 60.4094 81.9998H49.6005C47.5738 81.9998 46.2227 80.6398 46.2227 78.5998C46.2227 76.5598 47.5738 75.1998 49.6005 75.1998L53.9952 55.1362C54.6707 52.4162 52.9783 50.0398 50.276 49.3598C41.1596 47.6562 33.2307 44.9362 30.5285 44.2562H28.836L17.6858 47.3198C16.676 47.6562 16.0005 46.9762 16.0005 45.9598V19.7833C16.0005 18.7598 16.676 18.0798 17.6858 18.0798L28.4947 21.1362H30.1872C34.916 20.1198 57.7072 13.9998 63.1116 13.9998C72.5694 13.9998 80.0005 22.5033 80.0005 32.6962Z"
    fill="white" />
</svg>