<svg width="96" height="96" viewBox="0 0 96 96" fill="none" xmlns="http://www.w3.org/2000/svg">
  <path
    d="M55.1961 23.4106L55.3296 23.4626L55.4218 23.3528C56.3173 22.2862 57.1197 21.3447 57.8106 20.5529L57.9903 20.347L57.7397 20.238C54.0531 18.6347 50.1097 17.8001 46.1171 17.8001C45.0358 17.8001 44.1593 18.6767 44.1593 19.7579C44.1593 20.8392 45.036 21.7157 46.1172 21.7157C49.2651 21.7157 52.3019 22.2844 55.1961 23.4106ZM75.42 20.58C71.6795 16.8385 65.671 16.9084 62.0008 20.5798C60.5721 22.0084 57.2161 26.0061 52.9706 31.2171C48.7214 36.4325 43.5726 42.8743 38.5531 49.2001C28.5141 61.852 18.991 74.0424 18.2146 75.0366C17.6059 75.816 17.6745 76.9272 18.3737 77.6263C19.0728 78.3254 20.184 78.394 20.9633 77.7853C22.5919 76.5136 54.3014 51.742 68.8211 39.7149L68.9444 39.6127L68.8717 39.4701C67.3907 36.563 65.4575 34.4143 63.9042 33.3181C61.6217 31.7004 61.0765 28.5319 62.6825 26.252L62.519 26.1368L62.6825 26.252C64.2121 24.0802 67.3395 23.3371 69.7377 25.0158L69.7377 25.0158C69.9837 25.188 73.3783 27.6165 76.4285 32.3052L76.5998 32.5685L76.7659 32.3018C79.0314 28.6634 78.629 23.7882 75.42 20.58Z"
    fill="white" stroke="white" stroke-width="0.4" />
  <path
    d="M67.9531 27.5692L67.953 27.5695C77.7893 34.6522 82.9125 52.4737 72.2174 67.6099C75.6234 71.3769 77.7412 74.9247 77.9294 75.2445L77.9295 75.2446C78.4776 76.1766 78.1667 77.3765 77.2347 77.9248L77.2347 77.9248C76.1673 78.5525 75.0183 78.0184 74.5546 77.2299M67.9531 27.5692L74.7269 77.1285M67.9531 27.5692L67.9441 27.5635C65.7645 26.1641 63.6526 29.199 65.694 30.7676L65.694 30.7676L65.697 30.7698C75.1401 37.7471 77.2631 53.4251 69.4242 64.7834M67.9531 27.5692L69.4242 64.7834M74.5546 77.2299L74.7269 77.1285M74.5546 77.2299C74.5546 77.23 74.5547 77.2301 74.5547 77.2302L74.7269 77.1285M74.5546 77.2299C74.5129 77.1595 72.6514 74.0476 69.6875 70.6714M74.7269 77.1285C74.6865 77.06 72.8118 73.9245 69.8258 70.5257C69.7799 70.5745 69.7338 70.623 69.6875 70.6714M69.6875 70.6714C65.8414 74.6909 60.9401 77.2586 55.5313 77.2586C50.2988 77.2586 46.0422 73.002 46.0422 67.7695C46.0422 62.537 50.2988 58.2804 55.5313 58.2804C60.833 58.2804 65.6443 61.3087 69.4242 64.7834M69.6875 70.6714L69.4242 64.7834M55.5313 73.3431C52.4582 73.3431 49.9578 70.8426 49.9578 67.7696C49.9578 64.6965 52.4582 62.1961 55.5313 62.1961C59.7115 62.1961 63.7107 64.7884 66.9714 67.8506C63.7818 71.2269 59.8033 73.3431 55.5313 73.3431Z"
    fill="white" stroke="white" stroke-width="0.4" />
</svg>