<svg width="55" height="72" viewBox="0 0 55 72" fill="none" xmlns="http://www.w3.org/2000/svg">
<path d="M8.97749 72V0H28.3771C37.389 0 44.0619 1.78151 48.3959 5.34454C52.7986 8.90756 55 14.084 55 20.874C55 25.4454 53.9337 29.3782 51.8011 32.6723C49.6685 35.8992 46.5041 38.3866 42.3077 40.1345C38.1801 41.8824 33.055 42.7563 26.9325 42.7563H18.2645V72H8.97749ZM0 58.2857V51.7311H35.2908V58.2857H0ZM0 42.7563V35.0924H23.6304V42.7563H0ZM25.591 35.0924C29.7874 35.0924 33.3302 34.6555 36.2195 33.7815C39.1776 32.9076 41.4478 31.4622 43.03 29.4454C44.6123 27.4286 45.4034 24.6723 45.4034 21.1765C45.4034 16.605 43.9587 13.2101 41.0694 10.9916C38.1801 8.77311 33.6742 7.66387 27.5516 7.66387H18.2645V35.0924H25.591Z" fill="black"/>
</svg>
