<svg width="96" height="96" viewBox="0 0 96 96" fill="none" xmlns="http://www.w3.org/2000/svg">
  <path
    d="M22 40C29.732 40 36 33.732 36 26C36 18.268 29.732 12 22 12C14.268 12 8 18.268 8 26C8 33.732 14.268 40 22 40Z"
    fill="white" />
  <path
    d="M22 84C29.732 84 36 77.732 36 70C36 62.268 29.732 56 22 56C14.268 56 8 62.268 8 70C8 77.732 14.268 84 22 84Z"
    fill="white" />
  <path
    d="M62.666 47.9209L90.395 27.2012L90.4003 27.1972C92.1504 25.8713 92.5346 23.3665 91.1935 21.5963C89.8682 19.8469 87.365 19.4623 85.595 20.8012C85.5942 20.8018 85.5933 20.8024 85.5925 20.803L55.9969 42.9507L34.3962 26.7599L34.3904 26.7556L34.3846 26.7514C32.6386 25.4816 30.1389 25.788 28.7993 27.5563C27.4582 29.3265 27.8424 31.8313 29.5925 33.1572L29.5974 33.1609L49.3278 47.9207L26.7968 64.7998L26.7925 64.803C25.043 66.1284 24.6585 68.6319 25.9979 70.4021C26.7954 71.4641 27.9771 72.0001 29.1964 72.0001C30.0608 72.0001 30.8615 71.7254 31.5776 71.2138L31.5868 71.2073L31.5958 71.2006L55.9966 52.9293L85.5925 75.0772C86.2983 75.618 87.154 75.8801 87.9964 75.8801C89.216 75.8801 90.398 75.3439 91.1955 74.2813C92.5342 72.5112 92.1495 70.0082 90.4003 68.683L90.3957 68.6796L62.666 47.9209Z"
    fill="white" stroke="white" stroke-width="2" />
</svg>