<svg width="96" height="96" viewBox="0 0 96 96" fill="none" xmlns="http://www.w3.org/2000/svg">
  <path fill-rule="evenodd" clip-rule="evenodd"
    d="M15.049 22.4108C13.7838 23.1176 13 24.4535 13 25.9027V48.9735C13 63.4655 20.8384 76.824 33.4896 83.8926L46.049 90.9099C47.2614 91.5874 48.7386 91.5874 49.951 90.9099L62.5104 83.8926C75.1616 76.824 83 63.4655 83 48.9735V25.9027C83 24.4535 82.2162 23.1176 80.951 22.4108L49.951 5.09012C48.7386 4.41267 47.2614 4.41267 46.049 5.09012L15.049 22.4108ZM42.818 59.182C44.5754 60.9394 47.4246 60.9394 49.182 59.182L65.182 43.182C66.9393 41.4246 66.9393 38.5754 65.182 36.818C63.4246 35.0607 60.5754 35.0607 58.818 36.818L46 49.6361L41.182 44.818C39.4246 43.0607 36.5754 43.0607 34.818 44.818C33.0607 46.5754 33.0607 49.4246 34.818 51.182L42.818 59.182Z"
    fill="white" />
</svg>