<svg width="96" height="96" viewBox="0 0 96 96" fill="none" xmlns="http://www.w3.org/2000/svg">
<path d="M20.2852 31.9997C23.2359 26.8888 27.5425 22.6935 32.7289 19.8775C37.9152 17.0616 43.7793 15.7347 49.6727 16.0435C55.5662 16.3524 61.2594 18.285 66.123 21.6276C70.9866 24.9703 74.8311 29.5928 77.2314 34.9841" stroke="white" stroke-width="9" stroke-linecap="round"/>
<path d="M12.9177 22.0615L15.8353 34.6997C16.3323 36.8522 18.4801 38.1943 20.6326 37.6974L33.2708 34.7797" stroke="white" stroke-width="9" stroke-linecap="round"/>
<path d="M75.7187 64.002C72.768 69.1129 68.4614 73.3082 63.275 76.1242C58.0887 78.9401 52.2246 80.267 46.3312 79.9582C40.4378 79.6493 34.7445 77.7167 29.8809 74.3741C25.0173 71.0314 21.1728 66.4089 18.7725 61.0176" stroke="white" stroke-width="9" stroke-linecap="round"/>
<path d="M83.0862 73.9402L80.1686 61.3021C79.6716 59.1495 77.5238 57.8074 75.3713 58.3043L62.7331 61.222" stroke="white" stroke-width="9" stroke-linecap="round"/>
</svg>
