<svg width="24" height="20" viewBox="0 0 24 20" fill="none" xmlns="http://www.w3.org/2000/svg">
  <path fill-rule="evenodd" clip-rule="evenodd"
    d="M18.3844 19.779C18.7064 20.007 19.1214 20.064 19.4914 19.924C19.8614 19.783 20.1334 19.467 20.2154 19.084C21.0844 15 23.1924 4.66303 23.9834 0.948026C24.0434 0.668026 23.9434 0.377026 23.7234 0.190026C23.5034 0.00302622 23.1984 -0.0509739 22.9264 0.0500261C18.7334 1.60203 5.8204 6.44703 0.542398 8.40003C0.207398 8.52402 -0.0106021 8.84603 0.000397854 9.19903C0.0123979 9.55303 0.250398 9.86003 0.593398 9.96303C2.9604 10.671 6.0674 11.656 6.0674 11.656C6.0674 11.656 7.5194 16.041 8.2764 18.271C8.3714 18.551 8.5904 18.771 8.8794 18.847C9.1674 18.922 9.4754 18.843 9.6904 18.64C10.9064 17.492 12.7864 15.717 12.7864 15.717C12.7864 15.717 16.3584 18.336 18.3844 19.779ZM7.3744 11.102L9.0534 16.64L9.4264 13.133C9.4264 13.133 15.9134 7.28203 19.6114 3.94703C19.7194 3.84903 19.7344 3.68503 19.6444 3.57003C19.5554 3.45503 19.3914 3.42803 19.2684 3.50603C14.9824 6.24303 7.3744 11.102 7.3744 11.102Z"
    fill="white"
  />
</svg>