<svg width="200" height="200" viewBox="0 0 200 200" fill="none" xmlns="http://www.w3.org/2000/svg">
<circle cx="100" cy="100" r="100" fill="black"/>
<path d="M138 114C139.12 114 140 114.88 140 116V120C140 126.64 134.64 132 128 132C128 125.4 122.6 120 116 120C109.4 120 104 125.4 104 132H96C96 125.4 90.6 120 84 120C77.4 120 72 125.4 72 132C65.36 132 60 126.64 60 120V112C60 109.8 61.8 108 64 108H102C107.52 108 112 103.52 112 98V76C112 73.8 113.8 72 116 72H119.36C122.24 72 124.88 73.56 126.32 76.04L128.88 80.52C129.24 81.16 128.76 82 128 82C122.48 82 118 86.48 118 92V104C118 109.52 122.48 114 128 114H138Z" fill="white"/>
<path d="M84 140C88.4183 140 92 136.418 92 132C92 127.582 88.4183 124 84 124C79.5817 124 76 127.582 76 132C76 136.418 79.5817 140 84 140Z" fill="white"/>
<path d="M116 140C120.418 140 124 136.418 124 132C124 127.582 120.418 124 116 124C111.582 124 108 127.582 108 132C108 136.418 111.582 140 116 140Z" fill="white"/>
<path d="M140 102.12V108H128C125.8 108 124 106.2 124 104V92C124 89.8 125.8 88 128 88H133.16L138.96 98.16C139.64 99.36 140 100.72 140 102.12Z" fill="white"/>
<path d="M104.32 60H74.76C66.6 60 60 66.6 60 74.76V100.32C60 102.52 61.8 104.32 64 104.32H100.6C104.68 104.32 108 101 108 96.92V63.68C108 61.64 106.36 60 104.32 60ZM89.52 83.64C89.52 84.68 88.96 85.68 88.08 86.2L83.08 89.2C82.56 89.52 82.04 89.64 81.52 89.64C80.52 89.64 79.52 89.12 78.96 88.2C78.08 86.76 78.56 84.92 79.96 84.08L83.52 81.96V77.64C83.52 76 84.88 74.64 86.52 74.64C88.16 74.64 89.52 76 89.52 77.64V83.64Z" fill="white"/>
</svg>
