<svg width="96" height="96" viewBox="0 0 96 96" fill="none" xmlns="http://www.w3.org/2000/svg">
<path d="M86 62C87.12 62 88 62.88 88 64V68C88 74.64 82.64 80 76 80C76 73.4 70.6 68 64 68C57.4 68 52 73.4 52 80H44C44 73.4 38.6 68 32 68C25.4 68 20 73.4 20 80C13.36 80 8 74.64 8 68V60C8 57.8 9.8 56 12 56H50C55.52 56 60 51.52 60 46V24C60 21.8 61.8 20 64 20H67.36C70.24 20 72.88 21.56 74.32 24.04L76.88 28.52C77.24 29.16 76.76 30 76 30C70.48 30 66 34.48 66 40V52C66 57.52 70.48 62 76 62H86Z" fill="white"/>
<path d="M32 88C36.4183 88 40 84.4183 40 80C40 75.5817 36.4183 72 32 72C27.5817 72 24 75.5817 24 80C24 84.4183 27.5817 88 32 88Z" fill="white"/>
<path d="M64 88C68.4183 88 72 84.4183 72 80C72 75.5817 68.4183 72 64 72C59.5817 72 56 75.5817 56 80C56 84.4183 59.5817 88 64 88Z" fill="white"/>
<path d="M88 50.12V56H76C73.8 56 72 54.2 72 52V40C72 37.8 73.8 36 76 36H81.16L86.96 46.16C87.64 47.36 88 48.72 88 50.12Z" fill="white"/>
<path d="M52.32 8H22.76C14.6 8 8 14.6 8 22.76V48.32C8 50.52 9.8 52.32 12 52.32H48.6C52.68 52.32 56 49 56 44.92V11.68C56 9.64 54.36 8 52.32 8ZM37.52 31.64C37.52 32.68 36.96 33.68 36.08 34.2L31.08 37.2C30.56 37.52 30.04 37.64 29.52 37.64C28.52 37.64 27.52 37.12 26.96 36.2C26.08 34.76 26.56 32.92 27.96 32.08L31.52 29.96V25.64C31.52 24 32.88 22.64 34.52 22.64C36.16 22.64 37.52 24 37.52 25.64V31.64Z" fill="white"/>
</svg>
