<svg width="96" height="96" viewBox="0 0 96 96" fill="none" xmlns="http://www.w3.org/2000/svg">
<path fill-rule="evenodd" clip-rule="evenodd" d="M8 44C8 32.9543 16.9543 24 28 24H68C78.7104 24 87.4544 32.4189 87.9754 43H70C62.8203 43 57 48.8203 57 56C57 63.1797 62.8203 69 70 69H87.9754C87.4544 79.5811 78.7104 88 68 88H28C16.9543 88 8 79.0457 8 68V44ZM70 49H88V63H70C66.134 63 63 59.866 63 56C63 52.134 66.134 49 70 49ZM70 53C68.3431 53 67 54.3431 67 56C67 57.6569 68.3431 59 70 59H70.8C72.4569 59 73.8 57.6569 73.8 56C73.8 54.3431 72.4569 53 70.8 53H70Z" fill="white"/>
<path d="M77.9531 19.9718C75.0688 12.0064 66.6442 6.86377 57.7674 8.69136L23.3645 15.7743C16.179 17.2537 10.3574 21.9906 7.3125 28.2519C12.0624 22.021 19.5628 17.9998 28.0025 17.9998H68.0025C71.5272 17.9998 74.888 18.7011 77.9531 19.9718Z" fill="white"/>
</svg>
