<svg width="96" height="96" viewBox="0 0 96 96" fill="none" xmlns="http://www.w3.org/2000/svg">
  <path
    d="M93.9322 58.2118C92.8128 52.1048 90.9298 46.165 88.328 40.534C85.9821 35.4655 83.0726 30.6811 79.6553 26.2725C79.0954 25.5693 78.387 25.0005 77.5813 24.6074C76.7757 24.2143 75.8931 24.0069 74.9979 24.0001C28.6365 24.7293 10.8578 51.4756 4.5368 66.4257H82.8982C85.0171 64.3562 87.7493 63.0394 90.6797 62.6757C91.1916 62.6132 91.6853 62.4459 92.1305 62.184C92.5757 61.9221 92.9628 61.5713 93.2681 61.153C93.5734 60.7348 93.7903 60.2581 93.9055 59.7522C94.0207 59.2464 94.0318 58.7221 93.938 58.2118H93.9322ZM78.3865 49.2861C78.0385 49.8127 77.5664 50.2443 77.0121 50.5422C76.4579 50.8402 75.8389 50.9952 75.2106 50.9933H32.6806C32.2832 50.9971 31.8945 50.8764 31.5682 50.6479C31.242 50.4195 30.9943 50.0947 30.8596 49.7184C30.7249 49.342 30.7097 48.9329 30.8162 48.5475C30.9227 48.1621 31.1455 47.8196 31.4539 47.5673C41.7405 39.3187 55.04 34.6909 71.0841 33.7843C71.4201 33.7675 71.7548 33.8371 72.0566 33.9867C72.3584 34.1362 72.6173 34.3606 72.8091 34.6388C74.7024 37.4368 76.3688 40.3836 77.7923 43.4507C78.1143 44.1593 78.4241 44.8737 78.7219 45.5939C78.9735 46.1893 79.0746 46.8382 79.0161 47.4825C78.9575 48.1269 78.7412 48.7465 78.3865 49.2861ZM3.04758 70.2838C2.68917 71.314 2.39017 72.2515 2.15826 73.0482C1.98875 73.6253 1.95571 74.2343 2.06179 74.8265C2.16787 75.4187 2.41013 75.9778 2.76921 76.459C3.12828 76.9401 3.59421 77.3301 4.12976 77.5977C4.66531 77.8653 5.25562 78.0031 5.85352 78H75.0937C76.0356 78.0061 76.9464 77.6613 77.6509 77.032C78.3554 76.4027 78.8037 75.5334 78.9097 74.5914C79.0739 73.0968 79.4866 71.6407 80.1306 70.2838H3.04758Z"
    fill="white" />
</svg>